<svg width="81" height="80" viewBox="0 0 81 80" fill="none" xmlns="http://www.w3.org/2000/svg">
<path d="M80.169 0.45035C79.7437 0.0295075 79.1148 -0.110981 78.5523 0.0910105L13.8848 23.2088C11.6382 21.8314 8.78852 21.5089 6.17491 22.5939C1.83653 24.3957 -0.23123 29.4004 1.56578 33.7504C5.80358 44.0074 11.9222 53.1886 19.7521 61.039C27.582 68.8894 36.7393 75.0241 46.9697 79.2728C48.0321 79.7139 49.1334 79.9227 50.2176 79.9227C53.5611 79.9226 56.7402 77.9362 58.0971 74.6514C59.01 72.4414 58.9238 70.0628 58.0505 68.0204L80.5483 2.06644C80.7417 1.49949 80.5944 0.871348 80.169 0.45035ZM23.6763 23.0229L30.5299 20.573C31.3346 21.4325 31.7267 22.6158 31.5697 23.8124C31.4311 24.8661 30.8918 25.8028 30.0509 26.4499C29.21 27.0969 28.1687 27.3765 27.117 27.238C26.0662 27.0992 25.1321 26.5587 24.4867 25.7154C23.8921 24.9385 23.6092 23.9907 23.6763 23.0229ZM55.2202 73.4565C54.0802 76.216 50.9131 77.5312 48.1614 76.3879C28.2265 68.1092 12.7003 52.5424 4.44282 32.5555C3.89058 31.2188 3.89058 29.7467 4.44282 28.4098C4.99507 27.0732 6.03338 26.0321 7.36658 25.4785C8.69978 24.9248 10.1683 24.9248 11.5015 25.4785C12.8347 26.0321 13.873 27.0732 14.4252 28.4098C17.9596 36.9651 23.0632 44.623 29.5942 51.1711C36.1252 57.7191 43.7632 62.8359 52.2963 66.3796C55.0486 67.5224 56.3603 70.6973 55.2202 73.4565ZM69.0524 26.1199C68.9115 26.1164 68.7704 26.1083 68.6297 26.0899C67.5789 25.9511 66.6448 25.4104 65.9996 24.5673C65.3542 23.7242 65.0751 22.6794 65.2133 21.6259C65.499 19.4509 67.4958 17.9145 69.666 18.2005C70.3355 18.2889 70.964 18.5492 71.5 18.9452L69.0524 26.1199ZM72.5349 15.9101C71.7764 15.4959 70.943 15.2201 70.0723 15.1052C66.2001 14.5927 62.6358 17.3365 62.1261 21.2185C61.8792 23.0989 62.3774 24.9632 63.529 26.468C64.6383 27.9173 66.2264 28.8642 68.0178 29.153L64.9233 38.2253L61.3644 35.4874C60.6823 34.9629 59.7047 35.0915 59.1815 35.7755C58.658 36.4595 58.7868 37.4394 59.4689 37.9642L63.8602 41.3425L55.8118 64.9376C55.1367 64.3491 54.3593 63.8567 53.4886 63.4951C36.9882 56.6425 24.1373 43.7581 17.3029 27.215C17.0653 26.6397 16.7701 26.1055 16.4296 25.6135L20.5989 24.123C20.7445 25.3825 21.2267 26.5838 22.0165 27.6158C23.168 29.1205 24.8353 30.0856 26.7108 30.333C27.025 30.3745 27.3382 30.3951 27.6499 30.3951C29.1988 30.3951 30.6972 29.8878 31.9466 28.9267C33.4476 27.7719 34.41 26.1005 34.657 24.2198C34.8786 22.5316 34.4856 20.8595 33.6033 19.4743L52.957 12.5557L53.6905 14.3311C53.939 14.9323 54.5186 15.2952 55.1296 15.2952C55.3281 15.2952 55.5298 15.2568 55.7248 15.1759C56.5191 14.8461 56.8964 13.9328 56.5674 13.1363L55.8939 11.5059L76.5573 4.11898L72.5349 15.9101Z" fill="#90E051"/>
</svg>
